<svg width="331" height="332" xmlns="http://www.w3.org/2000/svg" xmlns:xlink="http://www.w3.org/1999/xlink" overflow="hidden"><defs><clipPath id="clip0"><rect x="3779" y="888" width="331" height="332"/></clipPath><clipPath id="clip1"><path d="M3935.83 927.497 3803.4 1063.99 3962.65 1218.5 4095.08 1082Z" fill-rule="evenodd" clip-rule="evenodd"/></clipPath><clipPath id="clip2"><path d="M3935.83 927.497 3803.4 1063.99 3962.65 1218.5 4095.08 1082Z" fill-rule="evenodd" clip-rule="evenodd"/></clipPath><clipPath id="clip3"><path d="M3935.83 927.497 3803.4 1063.99 3962.65 1218.5 4095.08 1082Z" fill-rule="evenodd" clip-rule="evenodd"/></clipPath></defs><g clip-path="url(#clip0)" transform="translate(-3779 -888)"><path d="M3922.47 896.668C3933.01 886.13 3950.09 886.13 3960.63 896.668L4101.41 1037.44C4111.94 1047.98 4111.94 1065.07 4101.41 1075.6L3965.89 1211.12C3955.35 1221.65 3938.27 1221.65 3927.73 1211.12L3786.96 1070.34C3776.42 1059.8 3776.42 1042.72 3786.96 1032.18Z" fill="#EA222B" fill-rule="evenodd"/><g clip-path="url(#clip1)"><g clip-path="url(#clip2)"><g clip-path="url(#clip3)"><path d="M1964.36 1043.55C1958.45 1043.57 1957.39 1044.51 1954.46 1049.47 1946.26 1063.33 1951.84 1089.72 1971.12 1128.2 1985.04 1155.97 2011.25 1191.82 2017.63 1191.82 2019.28 1191.82 2018.98 1190.33 2016.63 1186.75 1999.68 1161.07 1991.89 1141.28 1991.89 1123.97 1991.89 1104.18 2003.33 1099.8 2022.55 1112.23 2035.5 1120.59 2044.18 1130.25 2056.78 1150.33L2066.05 1165.08 2065.11 1157.26C2063.98 1147.87 2047.54 1117.51 2032.88 1097.77 2019 1079.08 1992.62 1052.17 1983.66 1047.56 1979.53 1045.45 1972.37 1043.72 1967.21 1043.59 1966.14 1043.56 1965.2 1043.55 1964.36 1043.55ZM2090.67 1153.32C2089.7 1153.31 2088.61 1153.36 2087.36 1153.44 2079.72 1154 2079.49 1154.21 2079.49 1160.39 2079.49 1165.67 2080.28 1166.94 2084.1 1167.84 2090.8 1169.41 2091.36 1178.88 2085.28 1188.07 2081.84 1193.27 2081.2 1195.57 2082.76 1197.13 2084.32 1198.69 2086.9 1197.23 2092.92 1191.37 2097.36 1187.06 2102.17 1181.29 2103.61 1178.55 2107.72 1170.73 2106.83 1164.47 2100.73 1158.38 2096.94 1154.59 2094.89 1153.38 2090.67 1153.32ZM2000.23 1203.16C1998.14 1203.11 1997.15 1204.88 1994.99 1209.41 1991.1 1217.56 1991.08 1221.21 1994.89 1226.64 2000.94 1235.28 2009.13 1236.73 2025.08 1231.99 2035.11 1229 2037.95 1227.07 2036.79 1224.03 2035.95 1221.86 2033.82 1221.51 2026.97 1222.42 2015.27 1223.97 2010.33 1221.25 2010.33 1213.26 2010.33 1208.52 2009.28 1206.69 2005.63 1205.03 2003.12 1203.88 2001.48 1203.2 2000.23 1203.16ZM2090.36 1213.6 2065.1 1231.45 2039.84 1249.3 2039.84 1258.37 2039.84 1264.94 2139.68 1264.94C2137.16 1262.92 2132.57 1256.09 2126.4 1245.11 2114.58 1224.08 2110.91 1220.39 2097.36 1215.92Z" fill="#FFFFFF" fill-opacity="0.99" transform="matrix(-0.696343 0.717709 0.717709 0.696344 4545.29 -1199.28)"/></g></g></g></g></svg>