<svg width="299" height="292" xmlns="http://www.w3.org/2000/svg" xmlns:xlink="http://www.w3.org/1999/xlink" overflow="hidden"><defs><clipPath id="clip0"><rect x="3120" y="930" width="299" height="292"/></clipPath><clipPath id="clip1"><rect x="3190" y="957" width="227" height="266"/></clipPath><clipPath id="clip2"><rect x="3190" y="957" width="227" height="266"/></clipPath><clipPath id="clip3"><rect x="3190" y="957" width="227" height="266"/></clipPath></defs><g clip-path="url(#clip0)" transform="translate(-3120 -930)"><path d="M3120 961.969C3120 944.313 3134.31 930 3151.97 930L3387.03 930C3404.69 930 3419 944.313 3419 961.969L3419 1189.03C3419 1206.69 3404.69 1221 3387.03 1221L3151.97 1221C3134.31 1221 3120 1206.69 3120 1189.03Z" fill="#EA222B" fill-rule="evenodd"/><g clip-path="url(#clip1)"><g clip-path="url(#clip2)"><g clip-path="url(#clip3)"><path d="M2344.61 1245.56C2337.56 1245.58 2336.29 1246.7 2332.79 1252.62 2323 1269.17 2329.67 1300.67 2352.68 1346.59 2369.3 1379.74 2400.57 1422.53 2408.19 1422.53 2410.16 1422.53 2409.81 1420.74 2407 1416.48 2386.77 1385.82 2377.46 1362.21 2377.46 1341.54 2377.46 1317.92 2391.12 1312.69 2414.07 1327.53 2429.53 1337.51 2439.88 1349.04 2454.93 1373L2465.98 1390.61 2464.86 1381.28C2463.51 1370.07 2443.89 1333.84 2426.39 1310.27 2409.83 1287.96 2378.34 1255.84 2367.65 1250.35 2362.72 1247.82 2354.17 1245.75 2348.01 1245.6 2346.74 1245.57 2345.62 1245.55 2344.61 1245.56ZM2495.37 1376.57C2494.21 1376.56 2492.91 1376.62 2491.42 1376.72 2482.3 1377.38 2482.02 1377.63 2482.02 1385.01 2482.02 1391.32 2482.96 1392.84 2487.52 1393.9 2495.53 1395.77 2496.19 1407.09 2488.94 1418.05 2484.83 1424.25 2484.07 1427 2485.93 1428.86 2487.8 1430.73 2490.88 1428.98 2498.06 1421.99 2503.35 1416.84 2509.1 1409.95 2510.82 1406.68 2515.72 1397.35 2514.65 1389.89 2507.38 1382.61 2502.85 1378.08 2500.41 1376.65 2495.37 1376.57ZM2387.42 1436.07C2384.94 1436 2383.74 1438.12 2381.17 1443.52 2376.53 1453.25 2376.51 1457.6 2381.04 1464.09 2388.27 1474.4 2398.05 1476.13 2417.09 1470.47 2429.06 1466.9 2432.45 1464.6 2431.06 1460.97 2430.06 1458.38 2427.51 1457.96 2419.34 1459.05 2405.37 1460.9 2399.48 1457.66 2399.48 1448.12 2399.48 1442.46 2398.23 1440.28 2393.87 1438.29 2390.87 1436.92 2388.91 1436.1 2387.42 1436.07ZM2495 1448.53 2464.85 1469.83 2434.7 1491.14 2434.7 1501.96 2434.7 1509.81 2553.87 1509.81C2550.86 1507.4 2545.39 1499.24 2538.02 1486.13 2523.91 1461.03 2519.53 1456.63 2503.36 1451.29Z" fill="#FFFFFF" fill-opacity="0.99" transform="matrix(1 0 0 1.00063 861.576 -289.34)"/></g></g></g></g></svg>