<svg width="299" height="290" xmlns="http://www.w3.org/2000/svg" xmlns:xlink="http://www.w3.org/1999/xlink" overflow="hidden"><defs><clipPath id="clip0"><rect x="260" y="538" width="299" height="290"/></clipPath><clipPath id="clip1"><rect x="316" y="578" width="186" height="214"/></clipPath><clipPath id="clip2"><rect x="316" y="578" width="186" height="214"/></clipPath><clipPath id="clip3"><rect x="316" y="578" width="186" height="214"/></clipPath></defs><g clip-path="url(#clip0)" transform="translate(-260 -538)"><path d="M260 569.859C260 552.264 274.264 538 291.859 538L527.141 538C544.736 538 559 552.264 559 569.859L559 796.141C559 813.736 544.736 828 527.141 828L291.859 828C274.264 828 260 813.736 260 796.141Z" fill="#0070C0" fill-rule="evenodd"/><g clip-path="url(#clip1)"><g clip-path="url(#clip2)"><g clip-path="url(#clip3)"><path d="M614.1 193.178 612.052 198.115C610.185 202.615 587.884 326.852 587.884 332.758 587.884 336.536 680.274 406.21 683.596 404.936 685.164 404.334 706.202 390.336 730.347 373.829 780.034 339.86 775.897 345.772 772.823 313.225L771.425 298.425 759.735 298.425 748.053 298.425 749.363 305.002C750.355 309.964 749.873 311.58 747.403 311.58 743.454 311.58 741.422 301.106 741.388 280.593 741.362 263.314 741.532 263.422 712.307 263.377 701 263.358 693.123 262.44 693.123 261.148 693.123 259.825 702.262 258.96 716.148 258.96L739.166 258.96 739.166 244.847 739.166 230.73 750.681 224.566C761.564 218.734 762.229 217.879 762.874 208.916 764.049 192.572 767.017 193.178 686.232 193.178ZM764.058 224.226C762.916 224.336 759.054 225.948 754.73 228.153 745.765 232.727 745.751 232.76 745.751 245.523 745.751 252.558 746.381 264.381 747.155 271.793L748.568 285.27 759.213 285.27C767.452 285.27 769.866 284.486 769.866 281.81 769.866 275.482 765.045 224.985 764.372 224.272 764.328 224.225 764.221 224.21 764.058 224.226ZM672.067 285.758C672.144 285.742 672.218 285.744 672.294 285.764 673.5 286.096 674.334 288.339 674.147 290.75 673.961 293.162 673.093 302.782 672.221 312.129L670.634 329.125 685.168 329.125C696.626 329.125 699.701 329.817 699.701 332.41 699.701 335.017 696.549 335.702 684.466 335.702L669.223 335.702 667.737 348.857C666.686 358.148 665.32 362.012 663.093 362.012 661.146 362.012 660.348 360.54 661.006 358.17 661.591 356.061 662.696 348.418 663.461 341.182 664.226 333.947 665.405 324.821 666.078 320.901L667.303 313.774 651.712 313.774C639.522 313.774 636.12 313.079 636.12 310.583 636.12 308.141 639.852 307.235 652.012 306.742L667.911 306.1 669.008 295.628C669.574 290.23 670.908 285.995 672.067 285.758Z" fill="#FFFFFF" fill-opacity="0.99" transform="matrix(1 0 0 1.00279 -270.882 385.286)"/></g></g></g></g></svg>