<svg width="299" height="290" xmlns="http://www.w3.org/2000/svg" xmlns:xlink="http://www.w3.org/1999/xlink" overflow="hidden"><defs><clipPath id="clip0"><rect x="3120" y="1695" width="299" height="290"/></clipPath><clipPath id="clip1"><rect x="3121" y="1772" width="296" height="125"/></clipPath><clipPath id="clip2"><rect x="3121" y="1772" width="296" height="125"/></clipPath><clipPath id="clip3"><rect x="3121" y="1772" width="296" height="125"/></clipPath></defs><g clip-path="url(#clip0)" transform="translate(-3120 -1695)"><path d="M3120 1726.86C3120 1709.26 3134.26 1695 3151.86 1695L3387.14 1695C3404.74 1695 3419 1709.26 3419 1726.86L3419 1953.14C3419 1970.74 3404.74 1985 3387.14 1985L3151.86 1985C3134.26 1985 3120 1970.74 3120 1953.14Z" fill="#EA222B" fill-rule="evenodd"/><g clip-path="url(#clip1)"><g clip-path="url(#clip2)"><g clip-path="url(#clip3)"><path d="M536.834 579.544C533.602 579.729 530.378 584.769 531.348 589.88 531.94 593.009 533.059 599.763 533.833 604.895 534.906 612.009 536.206 614.228 539.307 614.228 541.544 614.228 543.878 613.411 544.493 612.418 546.19 609.672 541.994 583.169 539.461 580.635 538.647 579.821 537.739 579.492 536.834 579.544ZM486.319 590.075C479.459 590.075 481.448 594.107 496.703 611.153 510.879 626.991 519.532 631.707 519.449 623.554 519.396 618.29 491.474 590.075 486.319 590.075ZM572.269 609.859C565.944 609.959 559.895 611.286 556.94 613.678 551.142 618.374 548.811 628.395 546.837 657.166 545.386 678.316 545.543 679.509 550.515 685.271 554.631 690.039 558.209 691.535 567.78 692.5 577.993 693.529 580.79 692.986 585.896 688.942 589.217 686.313 591.933 682.876 591.933 681.305 591.933 679.342 595.017 678.532 601.795 678.718 611.329 678.981 611.664 679.22 611.677 685.88 611.696 695.504 617.858 702.149 628.58 704.111 640.504 706.29 649.623 702.388 653.295 693.525 655.095 689.177 657.687 686.671 660.397 686.671 662.745 686.671 666.577 685.651 668.912 684.399 672.005 682.745 670.309 683.603 673.023 682.975L673.08 648.938 666.574 646.487C662.684 645.018 659.988 642.411 659.988 640.121 659.988 637.991 657.264 633.205 653.939 629.482 648.977 623.93 646.054 622.646 637.645 622.321 629.488 622.006 626.245 623.007 621.74 627.238 618.627 630.163 616.078 633.896 616.078 635.539 616.078 637.899 615.106 638.009 611.442 636.049 608.892 634.684 604.58 633.994 601.862 634.514 598.043 635.244 597.147 634.602 597.91 631.686 599.394 626.012 592.462 614.318 586.199 611.936 582.278 610.446 577.189 609.783 572.269 609.859ZM379.292 613.605 379.292 624.599 405.347 626.126C428.574 627.485 431.868 627.238 433.077 624.089 433.831 622.124 433.58 619.65 432.514 618.589 431.448 617.528 418.965 615.964 404.778 615.119ZM441.531 623.869C436.781 623.954 435.252 624.748 434.577 626.508 432.329 632.368 437.196 634.336 458.328 636.115 489.566 638.746 496.435 638.171 496.435 632.9 496.435 628.106 491.27 627.068 454.08 624.425 448.391 624.02 444.382 623.817 441.531 623.869ZM577.663 636.182C585.788 636.182 589.152 639.286 590.994 648.496 592.621 656.627 585.173 666.914 577.663 666.914 574.644 666.914 570.529 664.414 567.773 660.911 564.363 656.576 563.404 653.127 564.33 648.496 566.172 639.286 569.538 636.182 577.663 636.182ZM637.275 647.157C642.444 647.157 651.205 657.513 651.205 663.625 651.205 669.735 642.444 680.085 637.275 680.085 635.543 680.085 631.846 678.237 629.056 675.979 619.065 667.889 624.978 647.157 637.275 647.157ZM507.309 657.407C498.958 657.508 464.429 668.341 461.985 672.106 460.087 675.03 464.456 680.606 467.694 679.389 469.01 678.893 478.858 675.64 489.576 672.159 508.683 665.955 513.572 662.323 508.99 657.741 508.752 657.503 508.173 657.397 507.309 657.407ZM526.919 675.698C522.402 675.698 506.524 693.117 506.405 698.202 506.24 705.232 514.373 702.269 522.511 692.339 531.005 681.972 532.67 675.698 526.919 675.698Z" fill="#FFFFFF" fill-opacity="0.99" transform="matrix(1 0 0 1.00414 2742.71 1190.06)"/></g></g></g></g></svg>