<svg width="331" height="331" xmlns="http://www.w3.org/2000/svg" xmlns:xlink="http://www.w3.org/1999/xlink" overflow="hidden"><defs><clipPath id="clip0"><rect x="3798" y="1670" width="331" height="331"/></clipPath><clipPath id="clip1"><rect x="3799" y="1766" width="320" height="144"/></clipPath><clipPath id="clip2"><rect x="3799" y="1766" width="320" height="144"/></clipPath><clipPath id="clip3"><rect x="3799" y="1766" width="320" height="144"/></clipPath></defs><g clip-path="url(#clip0)" transform="translate(-3798 -1670)"><path d="M3941.85 1678.47C3952.38 1667.93 3969.47 1667.93 3980.01 1678.47L4120.78 1819.25C4131.32 1829.78 4131.32 1846.87 4120.78 1857.41L3985.27 1992.92C3974.73 2003.46 3957.65 2003.46 3947.11 1992.92L3806.33 1852.14C3795.8 1841.61 3795.8 1824.52 3806.33 1813.98Z" fill="#EA222B" fill-rule="evenodd"/><g clip-path="url(#clip1)"><g clip-path="url(#clip2)"><g clip-path="url(#clip3)"><path d="M938.67 796.51C962.344 797.749 963.376 797.576 963.376 792.376 963.376 786.902 959.648 785.759 933.858 783.375 907.18 803.11 910.053 795.031 938.67 796.51ZM1230.58 820.002C1224.13 817.565 1222.24 815.314 1222.24 809.996 1222.24 800.294 1213.89 793.907 1199.39 792.528 1189.41 791.58 1185.52 792.469 1179.75 797.02 1175.8 800.142 1172.56 804.413 1172.56 806.517 1172.56 809.593 1171.49 809.769 1167.06 807.403 1164.04 805.785 1159.33 805.045 1156.6 805.758 1152.6 806.804 1151.65 805.633 1151.65 799.742 1151.65 788.658 1144.04 781.257 1129.96 778.627 1104.3 773.833 1098.25 781.513 1094.12 824.056 1091.46 851.444 1091.61 855.686 1095.37 861.435 1103.94 874.516 1129.12 877.377 1140 866.501 1143.53 862.971 1146.41 859.114 1146.41 857.931 1146.41 856.75 1151.12 856.234 1156.87 856.782 1166.31 857.682 1167.33 858.482 1167.33 864.993 1167.33 868.963 1169.63 875.127 1172.43 878.687L1177.52 885.159C1199.16 869.615 1251.72 835.432 1230.58 820.002ZM1081.51 743.507C1080.82 743.539 1080.07 743.712 1079.28 744.018 1075.98 745.283 1075.61 748.58 1077.12 762.819 1079.25 782.821 1080.01 784.617 1085.86 783.415 1089.46 782.676 1090.06 779.664 1089.39 765.699 1088.63 749.938 1086.35 743.283 1081.51 743.507ZM1025.55 755.246C1016.26 755.246 1021.19 765.129 1039.15 782.466 1056.6 799.321 1062.73 801.909 1062.73 792.424 1062.73 786.565 1031.42 755.246 1025.55 755.246ZM975.211 794.906C969.426 795.009 966.429 795.604 965.331 796.702 959.667 802.366 968.272 806.199 990.293 807.817 1026.66 810.49 1035.28 809.681 1035.28 803.62 1035.28 798.785 1032.76 798.218 1001.81 796.047 989.564 795.188 980.994 794.802 975.211 794.906ZM1130.15 807.547C1140.44 807.547 1148.11 825.805 1141.8 835.261 1138.2 840.644 1129.52 843.573 1123.7 841.372 1106.32 834.808 1111.52 807.547 1130.15 807.547ZM1197.02 820.936C1200.12 820.75 1203.1 822.402 1206.56 825.852 1216.81 836.11 1209.77 857.228 1196.09 857.228 1193.22 857.228 1188.51 854.87 1185.63 851.994 1178.57 844.927 1179.05 834.814 1186.82 827.041 1190.71 823.148 1193.92 821.123 1197.02 820.936ZM1047.15 831.885C1038.72 831.851 1002.39 843.729 997.362 848.484 993.875 851.777 993.875 852.463 997.362 854.668 1002.57 857.962 1000.66 858.306 1028.09 849.169 1051.42 841.394 1058.12 835.77 1048.45 832.061 1048.15 831.947 1047.71 831.886 1047.15 831.885ZM1072.65 851.994C1067.66 851.994 1047.05 873.484 1047.05 878.687 1047.05 886.493 1054.12 883.99 1065.19 872.263 1075.48 861.365 1078.92 851.994 1072.65 851.994Z" fill="#FFFFFF" fill-opacity="0.99" transform="matrix(1.00099 0 0 1 2882.67 1023.5)"/></g></g></g></g></svg>