<svg width="299" height="291" xmlns="http://www.w3.org/2000/svg" xmlns:xlink="http://www.w3.org/1999/xlink" overflow="hidden"><defs><clipPath id="clip0"><rect x="3120" y="1308" width="299" height="291"/></clipPath><clipPath id="clip1"><rect x="3195" y="1329" width="178" height="270"/></clipPath><clipPath id="clip2"><rect x="3195" y="1329" width="178" height="270"/></clipPath><clipPath id="clip3"><rect x="3195" y="1329" width="178" height="270"/></clipPath></defs><g clip-path="url(#clip0)" transform="translate(-3120 -1308)"><path d="M3120 1339.97C3120 1322.31 3134.31 1308 3151.97 1308L3387.03 1308C3404.69 1308 3419 1322.31 3419 1339.97L3419 1567.03C3419 1584.69 3404.69 1599 3387.03 1599L3151.97 1599C3134.31 1599 3120 1584.69 3120 1567.03Z" fill="#EA222B" fill-rule="evenodd"/><g clip-path="url(#clip1)"><g clip-path="url(#clip2)"><g clip-path="url(#clip3)"><path d="M695.571 945.849 687.561 952.229C665.746 969.605 659.776 986.628 665.297 1015.75 666.961 1024.52 677.018 1043.05 709.352 1097 732.393 1135.44 751.853 1166.89 752.606 1166.89 753.359 1166.89 757.895 1164.28 762.684 1161.09 767.473 1157.89 771.652 1155.09 771.974 1154.85 772.292 1154.61 756.204 1126.95 736.213 1093.38 716.226 1059.8 698.429 1029.54 696.663 1026.12 692.412 1017.89 694.37 1013.27 701.729 1014.15 706.806 1014.75 712.139 1022.62 744.316 1077.01 764.546 1111.21 781.993 1140.09 783.089 1141.19 784.29 1142.39 788.685 1141.34 794.132 1138.56 801.875 1134.61 802.864 1133.35 800.971 1129.81 799.756 1127.54 795.805 1125.03 792.187 1124.23 785.961 1122.86 785.608 1122.21 785.608 1112.02 785.608 1101.56 785.42 1101.26 779.156 1101.26 772.922 1101.26 772.696 1100.88 772.056 1089.77 771.44 1079.06 770.988 1078.24 765.378 1077.59 759.826 1076.95 759.367 1076.16 759.367 1067.16 759.367 1058.64 755.406 1050.51 727.471 1001.64ZM826.216 1140.76C822.468 1140.83 813.811 1145.8 787.789 1161.6 744.059 1188.16 745.212 1187.3 747.044 1192.07 748.988 1197.15 749.799 1196.78 792.8 1171.3 814.098 1158.68 831.525 1147.79 831.525 1147.1 831.525 1146.42 830.289 1144.17 828.783 1142.11 828.164 1141.26 827.465 1140.74 826.216 1140.76ZM813.996 1175.64 795.343 1188.07C783.458 1195.98 777.112 1201.54 777.865 1203.38 780.484 1207.09 782.555 1210.49 784.338 1213.56L840.083 1213.56C840.521 1213.32 840.928 1213.1 841.373 1212.86 828.564 1194.24 833.257 1200.23 828.564 1194.24Z" fill="#FFFFFF" transform="matrix(1 0 0 1.00375 2531.63 380.606)"/></g></g></g></g></svg>