<svg width="331" height="332" xmlns="http://www.w3.org/2000/svg" xmlns:xlink="http://www.w3.org/1999/xlink" overflow="hidden"><defs><clipPath id="clip0"><rect x="3798" y="1283" width="331" height="332"/></clipPath><clipPath id="clip1"><rect x="3910" y="1349" width="144" height="229"/></clipPath><clipPath id="clip2"><rect x="3910" y="1349" width="144" height="229"/></clipPath><clipPath id="clip3"><rect x="3910" y="1349" width="144" height="229"/></clipPath><clipPath id="clip4"><rect x="3910" y="1349" width="151" height="229"/></clipPath><clipPath id="clip5"><rect x="3910" y="1349" width="151" height="229"/></clipPath><clipPath id="clip6"><rect x="3910" y="1349" width="151" height="229"/></clipPath></defs><g clip-path="url(#clip0)" transform="translate(-3798 -1283)"><path d="M3941.85 1291.75C3952.38 1281.22 3969.47 1281.22 3980.01 1291.75L4120.78 1432.53C4131.32 1443.07 4131.32 1460.15 4120.78 1470.69L3985.27 1606.2C3974.73 1616.74 3957.65 1616.74 3947.11 1606.2L3806.33 1465.43C3795.8 1454.89 3795.8 1437.81 3806.33 1427.27Z" fill="#EA222B" fill-rule="evenodd"/><g clip-path="url(#clip1)"><g clip-path="url(#clip2)"><g clip-path="url(#clip3)"><g clip-path="url(#clip4)"><g clip-path="url(#clip5)"><g clip-path="url(#clip6)"><path d="M3935.85 1330.28 3929.07 1335.69C3910.59 1350.42 3905.51 1364.84 3910.21 1389.53 3911.61 1396.96 3920.12 1412.66 3947.55 1458.38 3967.05 1490.96 3983.55 1517.62 3984.2 1517.62 3984.85 1517.62 3988.69 1515.41 3992.73 1512.7 3996.78 1509.99 4000.35 1507.61 4000.62 1507.41 4000.89 1507.21 3987.25 1483.77 3970.31 1455.31 3953.37 1426.86 3938.29 1401.21 3936.78 1398.31 3933.18 1391.34 3934.83 1387.42 3941.07 1388.16 3945.39 1388.68 3949.91 1395.35 3977.17 1441.44 3994.31 1470.43 4009.09 1494.91 4010.01 1495.83 4011.04 1496.85 4014.78 1495.97 4019.37 1493.61 4025.96 1490.26 4026.78 1489.19 4025.2 1486.19 4024.14 1484.27 4020.81 1482.14 4017.73 1481.46 4012.45 1480.3 4012.17 1479.75 4012.17 1471.11 4012.17 1462.25 4012 1461.99 4006.69 1461.99 4001.41 1461.99 4001.24 1461.67 4000.69 1452.26 4000.14 1443.18 3999.76 1442.48 3995.03 1441.93 3990.3 1441.39 3989.92 1440.72 3989.92 1433.09 3989.92 1425.87 3986.56 1418.98 3962.91 1377.57ZM4046.6 1495.47C4043.41 1495.53 4036.07 1499.75 4014.03 1513.13 3976.96 1535.64 3977.92 1534.91 3979.47 1538.96 3981.15 1543.26 3981.83 1542.95 4018.28 1521.35 4036.31 1510.66 4051.09 1501.43 4051.09 1500.85 4051.09 1500.27 4050.03 1498.36 4048.76 1496.61 4048.24 1495.9 4047.63 1495.45 4046.6 1495.47ZM4036.21 1525.03 4020.4 1535.56C4010.36 1542.27 4005.45 1547.14 4006.07 1548.71 4007.55 1550.13 4012.28 1557.33 4013.61 1555.94 4022.8 1546.32 4027.91 1540.89 4039.94 1529.45Z" fill="#FFFFFF" transform="matrix(1 0 0 1.00316 1.43764 15.5137)"/></g></g></g></g></g></g></g></svg>