<svg width="299" height="290" xmlns="http://www.w3.org/2000/svg" xmlns:xlink="http://www.w3.org/1999/xlink" overflow="hidden"><defs><clipPath id="clip0"><rect x="260" y="916" width="299" height="290"/></clipPath><clipPath id="clip1"><rect x="312" y="960" width="192" height="221"/></clipPath><clipPath id="clip2"><rect x="312" y="960" width="192" height="221"/></clipPath><clipPath id="clip3"><rect x="312" y="960" width="192" height="221"/></clipPath></defs><g clip-path="url(#clip0)" transform="translate(-260 -916)"><path d="M260 947.859C260 930.264 274.264 916 291.859 916L527.141 916C544.736 916 559 930.264 559 947.859L559 1174.14C559 1191.74 544.736 1206 527.141 1206L291.859 1206C274.264 1206 260 1191.74 260 1174.14Z" fill="#3BB54A" fill-rule="evenodd"/><g clip-path="url(#clip1)"><g clip-path="url(#clip2)"><g clip-path="url(#clip3)"><path d="M2311.27 596.845C2310.53 596.838 2310.23 596.982 2310.01 597.201 2309.44 597.764 2301.18 619.367 2291.64 645.208 2282.1 671.046 2273.25 694.902 2271.96 698.221 2270.67 701.539 2270.12 704.255 2270.73 704.255 2271.34 704.255 2277.48 701.382 2284.39 697.874L2296.94 691.501 2309.79 656.19C2316.87 636.767 2323.78 620.896 2325.16 620.927 2326.54 620.954 2342.65 624.777 2360.97 629.416L2394.28 637.854 2406.69 630.822 2419.1 623.786 2375.57 612.568C2326.16 599.828 2314.52 596.882 2311.27 596.845ZM2338.63 647.93C2338.41 647.917 2338.28 647.93 2338.24 647.965 2336.64 649.573 2298.43 753.53 2299.16 754.319 2299.5 754.699 2305.74 752.011 2313.01 748.339L2326.23 741.664 2335.55 756.756 2344.86 771.842 2362.59 760.72C2372.34 754.603 2392.43 742.206 2407.21 733.171 2421.99 724.137 2434.09 715.895 2434.09 714.856 2434.09 713.82 2431.08 707.632 2427.4 701.114L2420.71 689.269 2434.23 682.058 2447.76 674.851 2393.52 660.883C2365.56 653.68 2341.95 648.126 2338.63 647.934ZM2440.23 726.201C2439 726.201 2356.97 775.874 2351.01 780.225 2350.58 780.544 2352.37 783.822 2355 787.511 2360.64 795.434 2356.46 797.073 2401.13 769.384 2418.65 758.522 2436.72 747.287 2441.29 744.42L2449.6 739.213 2445.76 732.708C2443.65 729.129 2441.16 726.201 2440.23 726.201ZM2454.83 748.614 2411.65 775.332C2387.91 790.024 2367.83 802.692 2367.03 803.491 2366.23 804.287 2367.67 807.873 2370.22 811.452L2374.85 817.953 2417.88 793.116C2441.54 779.457 2461.72 767.45 2462.71 766.439 2463.71 765.427 2462.35 761.004 2459.68 756.609Z" fill="#FFFFFF" fill-opacity="0.99" transform="matrix(1 0 0 1.00261 -1958.48 361.6)"/></g></g></g></g></svg>