<svg width="331" height="331" xmlns="http://www.w3.org/2000/svg" xmlns:xlink="http://www.w3.org/1999/xlink" overflow="hidden"><defs><clipPath id="clip0"><rect x="1003" y="912" width="331" height="331"/></clipPath><clipPath id="clip1"><rect x="1079" y="966" width="193" height="221"/></clipPath><clipPath id="clip2"><rect x="1079" y="966" width="193" height="221"/></clipPath><clipPath id="clip3"><rect x="1079" y="966" width="193" height="221"/></clipPath></defs><g clip-path="url(#clip0)" transform="translate(-1003 -912)"><path d="M1147.14 919.943C1157.68 909.405 1174.76 909.405 1185.3 919.943L1326.08 1060.72C1336.62 1071.26 1336.62 1088.34 1326.08 1098.88L1190.56 1234.39C1180.03 1244.93 1162.94 1244.93 1152.41 1234.39L1011.63 1093.62C1001.09 1083.08 1001.09 1065.99 1011.63 1055.46Z" fill="#3BB54A" fill-rule="evenodd"/><g clip-path="url(#clip1)"><g clip-path="url(#clip2)"><g clip-path="url(#clip3)"><path d="M2317.3 598.4C2316.55 598.393 2316.24 598.537 2316.03 598.757 2315.46 599.321 2307.17 620.981 2297.61 646.889 2288.05 672.794 2279.17 696.712 2277.88 700.04 2276.59 703.367 2276.03 706.09 2276.64 706.09 2277.25 706.09 2283.42 703.209 2290.34 699.692L2302.93 693.302 2315.81 657.899C2322.9 638.426 2329.83 622.514 2331.21 622.545 2332.6 622.572 2348.75 626.405 2367.12 631.056L2400.51 639.516 2412.96 632.465 2425.4 625.411 2381.76 614.164C2332.22 601.39 2320.55 598.437 2317.3 598.4ZM2344.72 649.618C2344.5 649.605 2344.37 649.618 2344.33 649.653 2342.72 651.265 2304.42 755.493 2305.14 756.284 2305.5 756.665 2311.74 753.97 2319.04 750.289L2332.29 743.596 2341.63 758.728 2350.97 773.853 2368.75 762.702C2378.52 756.569 2398.66 744.139 2413.48 735.081 2428.3 726.024 2440.43 717.76 2440.43 716.718 2440.43 715.68 2437.41 709.476 2433.72 702.941L2427.01 691.064 2440.57 683.835 2454.13 676.61 2399.76 662.605C2371.72 655.383 2348.05 649.814 2344.72 649.622ZM2446.58 728.093C2445.35 728.093 2363.11 777.895 2357.14 782.258 2356.7 782.577 2358.5 785.864 2361.13 789.562 2366.79 797.506 2362.6 799.149 2407.38 771.388 2424.95 760.498 2443.07 749.234 2447.65 746.36L2455.99 741.138 2452.13 734.617C2450.01 731.029 2447.52 728.093 2446.58 728.093ZM2461.23 750.564 2417.94 777.352C2394.13 792.082 2373.99 804.784 2373.2 805.585 2372.4 806.382 2373.84 809.978 2376.39 813.566L2381.04 820.084 2424.18 795.183C2447.9 781.488 2468.13 769.45 2469.13 768.435 2470.13 767.421 2468.76 762.987 2466.09 758.58Z" fill="#FFFFFF" fill-opacity="0.99" transform="matrix(1.0026 0 0 1 -1203.31 368.6)"/></g></g></g></g></svg>