<svg width="299" height="291" xmlns="http://www.w3.org/2000/svg" xmlns:xlink="http://www.w3.org/1999/xlink" overflow="hidden"><defs><clipPath id="clip0"><rect x="260" y="1302" width="299" height="291"/></clipPath><clipPath id="clip1"><rect x="293" y="1379" width="235" height="145"/></clipPath><clipPath id="clip2"><rect x="293" y="1379" width="235" height="145"/></clipPath><clipPath id="clip3"><rect x="293" y="1379" width="235" height="145"/></clipPath></defs><g clip-path="url(#clip0)" transform="translate(-260 -1302)"><path d="M260 1333.97C260 1316.31 274.313 1302 291.969 1302L527.031 1302C544.687 1302 559 1316.31 559 1333.97L559 1561.03C559 1578.69 544.687 1593 527.031 1593L291.969 1593C274.313 1593 260 1578.69 260 1561.03Z" fill="#BF9000" fill-rule="evenodd"/><g clip-path="url(#clip1)"><g clip-path="url(#clip2)"><g clip-path="url(#clip3)"><path d="M2422.76 1022.57C2402.53 1022.71 2382.03 1029.36 2360.39 1042.33 2342.67 1052.94 2304.57 1089.56 2304.57 1095.97 2304.57 1101.31 2328.42 1125.22 2349.72 1141.23 2384.23 1167.18 2420.1 1174.62 2454.18 1162.9 2460.76 1160.63 2471.51 1155.55 2478.08 1151.6 2493.29 1142.44 2537.2 1103.12 2539.19 1096.87 2540.4 1093.03 2537.83 1089.24 2525.59 1076.83 2489.41 1040.13 2456.47 1022.32 2422.76 1022.57ZM2422.4 1033.2C2449.55 1033.2 2474.77 1051.42 2481.99 1076.25 2493.71 1116.58 2468.07 1154.16 2426.46 1157.63 2418.5 1158.29 2409.96 1157.52 2404.06 1155.59 2378.11 1147.14 2359.98 1123.13 2359.72 1096.92 2359.38 1061.49 2387.21 1033.2 2422.4 1033.2ZM2422.4 1037.6C2417.14 1037.6 2416.89 1038.19 2416.89 1050.81 2416.89 1063.44 2417.14 1064.03 2422.4 1064.03 2427.66 1064.03 2427.9 1063.44 2427.9 1050.81 2427.9 1038.19 2427.66 1037.6 2422.4 1037.6ZM2387.16 1090.46C2372.11 1090.46 2370.64 1090.85 2370.64 1094.87 2370.64 1098.88 2372.11 1099.27 2387.16 1099.27 2402.21 1099.27 2403.68 1098.88 2403.68 1094.87 2403.68 1090.85 2402.21 1090.46 2387.16 1090.46ZM2459.83 1090.46C2444.79 1090.46 2443.32 1090.85 2443.32 1094.87 2443.32 1098.88 2444.79 1099.27 2459.83 1099.27 2474.89 1099.27 2476.36 1098.88 2476.36 1094.87 2476.36 1090.85 2474.89 1090.46 2459.83 1090.46ZM2422.4 1125.69C2417.14 1125.69 2416.89 1126.28 2416.89 1138.91 2416.89 1151.53 2417.14 1152.12 2422.4 1152.12 2427.66 1152.12 2427.9 1151.53 2427.9 1138.91 2427.9 1126.28 2427.66 1125.69 2422.4 1125.69Z" fill="#FFFFFF" fill-opacity="0.99" transform="matrix(1 0 0 1.00325 -2010.57 353.107)"/></g></g></g></g></svg>