<svg width="332" height="331" xmlns="http://www.w3.org/2000/svg" xmlns:xlink="http://www.w3.org/1999/xlink" overflow="hidden"><defs><clipPath id="clip0"><rect x="2867" y="414" width="332" height="331"/></clipPath><clipPath id="clip1"><rect x="2960" y="502" width="156" height="156"/></clipPath><clipPath id="clip2"><rect x="2960" y="502" width="156" height="156"/></clipPath><clipPath id="clip3"><rect x="2960" y="502" width="156" height="156"/></clipPath></defs><g clip-path="url(#clip0)" transform="translate(-2867 -414)"><path d="M3011.28 422.019C3021.82 411.482 3038.9 411.482 3049.44 422.019L3190.22 562.796C3200.75 573.333 3200.75 590.418 3190.22 600.955L3054.7 736.469C3044.16 747.006 3027.08 747.006 3016.54 736.469L2875.77 595.692C2865.23 585.155 2865.23 568.07 2875.77 557.533Z" fill="#EA222B" fill-rule="evenodd"/><g clip-path="url(#clip1)"><g clip-path="url(#clip2)"><g clip-path="url(#clip3)"><path d="M2974.21 502.999 2967.1 509.888 2960 516.77 2962.79 530.145C2965.37 542.493 2966.9 544.846 2982.73 560.769 2992.16 570.252 3001.92 578.367 3004.44 578.798 3010.09 579.769 3036.55 555.065 3036.55 548.821 3036.55 546.523 3029.15 537.044 3020.11 527.751 3005 512.223 3002.47 510.536 2988.94 506.929ZM3054.8 564.992C3050.39 564.992 3045.12 568.633 3034.96 578.705 3018.83 594.683 3017.07 601.276 3028.29 603.601 3036.96 605.399 3076.24 643.04 3076.24 649.55 3076.24 656.301 3093.09 652.567 3102.14 643.811 3107.7 638.421 3109.3 635.035 3109.3 628.635 3109.3 621.998 3108.33 620.114 3104.34 618.925 3101.61 618.116 3090.7 608.888 3080.09 598.428 3063.65 582.218 3060.8 578.35 3060.8 572.205 3060.8 565.826 3060.1 564.992 3054.8 564.992ZM3081.25 570.173C3078.68 570.269 3078.45 571.251 3078.84 573.569 3079.23 575.839 3084.99 582.194 3091.66 587.698 3102.45 596.599 3104.09 597.315 3106.54 594.156 3108.06 592.203 3109.3 589.875 3109.3 588.983 3109.3 588.091 3110.99 587.033 3113.06 586.634 3120.26 585.249 3100.48 572.408 3088.76 570.851 3085.17 570.376 3082.8 570.114 3081.25 570.173ZM3029.43 622.325C3023.13 622.294 3026.83 641.256 3035.22 651.965 3039.96 658.013 3042.25 659.625 3042.71 657.231 3043.07 655.337 3045.84 652.66 3048.86 651.286L3054.33 648.789 3043.79 635.562C3037.99 628.291 3031.53 622.335 3029.43 622.325Z" fill="#FFFFFF" fill-opacity="0.99"/></g></g></g></g></svg>