<svg width="299" height="291" xmlns="http://www.w3.org/2000/svg" xmlns:xlink="http://www.w3.org/1999/xlink" overflow="hidden"><defs><clipPath id="clip0"><rect x="815" y="1840" width="299" height="291"/></clipPath><clipPath id="clip1"><rect x="863" y="1874" width="203" height="223"/></clipPath><clipPath id="clip2"><rect x="863" y="1874" width="203" height="223"/></clipPath><clipPath id="clip3"><rect x="863" y="1874" width="203" height="223"/></clipPath></defs><g clip-path="url(#clip0)" transform="translate(-815 -1840)"><path d="M815 1871.97C815 1854.31 829.313 1840 846.969 1840L1082.03 1840C1099.69 1840 1114 1854.31 1114 1871.97L1114 2099.03C1114 2116.69 1099.69 2131 1082.03 2131L846.969 2131C829.313 2131 815 2116.69 815 2099.03Z" fill="#ACAFB2" fill-rule="evenodd"/><g clip-path="url(#clip1)"><g clip-path="url(#clip2)"><g clip-path="url(#clip3)"><path d="M1541.45 141.07C1531.9 141.139 1522.35 147.328 1519.06 159.601 1516.85 167.893 1515.05 170.228 1508.89 172.801 1504.78 174.519 1496.6 179.389 1490.71 183.62 1481.78 190.03 1479.26 190.916 1475.55 188.929 1469.44 185.657 1459.11 185.626 1453.04 188.868 1446.81 192.206 1440.69 202.234 1440.7 209.09 1440.71 215.728 1448.59 228.658 1453.41 229.913 1456.63 230.756 1457.08 233.869 1456.78 253.17 1456.47 272.854 1455.94 275.669 1452.23 277.331 1445.2 280.466 1440.03 291.454 1441.45 300.221 1443.92 315.473 1459.47 324.151 1473.73 318.242 1479.69 315.776 1481.05 315.992 1486.3 320.254 1489.53 322.884 1497.74 327.714 1504.54 330.987 1515.56 336.286 1517.04 337.817 1518.24 344.956 1521.15 362.615 1542.73 370.358 1556.58 358.717 1560.56 355.366 1563.81 350.094 1564.65 345.625 1565.85 339.182 1567.69 337.391 1577.84 332.745 1584.32 329.778 1592.91 324.844 1596.92 321.779 1603.42 316.829 1604.99 316.489 1610.96 318.743 1620.73 322.435 1631.18 318.792 1637.48 309.482 1644.14 299.656 1642.8 288.859 1633.93 280.861 1628.05 275.548 1627.72 274.431 1629.11 263.717 1629.91 257.412 1629.88 247.655 1629.03 242.03 1627.72 233.415 1628.12 231.346 1631.6 228.91 1643.95 220.26 1644.78 202.139 1633.27 192.453 1626.41 186.68 1613.68 184.892 1607.47 188.828 1605.4 190.142 1601.47 188.478 1595.01 183.553 1589.83 179.594 1581.28 174.712 1576 172.7 1567.5 169.452 1566.13 167.944 1563.81 159.285 1560.54 147.06 1550.99 141.002 1541.45 141.07ZM1542.91 204.496C1550.37 204.58 1557.9 205.682 1562.92 207.774 1582.08 215.766 1593.97 234.185 1593.97 255.866 1593.97 294.784 1555.96 318.787 1520.67 302.146 1507.61 295.99 1501.66 289.934 1495.65 276.682 1483.94 250.855 1496.9 218.406 1523.33 207.325 1528.07 205.342 1535.46 204.413 1542.91 204.496Z" fill="#FFFFFF" fill-opacity="0.99" transform="matrix(1 0 0 1.00205 -576.696 1732.64)"/></g></g></g></g></svg>