<svg width="303" height="298" xmlns="http://www.w3.org/2000/svg" xmlns:xlink="http://www.w3.org/1999/xlink" xml:space="preserve" overflow="hidden"><defs><clipPath id="clip0"><rect x="132" y="884" width="303" height="298"/></clipPath><clipPath id="clip1"><rect x="162" y="907" width="271" height="269"/></clipPath><clipPath id="clip2"><rect x="162" y="907" width="271" height="269"/></clipPath><clipPath id="clip3"><rect x="162" y="907" width="271" height="269"/></clipPath></defs><g clip-path="url(#clip0)" transform="translate(-132 -884)"><path d="M133 920.859C133 903.264 147.264 889 164.859 889L400.141 889C417.736 889 432 903.264 432 920.859L432 1147.14C432 1164.74 417.736 1179 400.141 1179L164.859 1179C147.264 1179 133 1164.74 133 1147.14Z" fill="#0070C0" fill-rule="evenodd" fill-opacity="1"/><g clip-path="url(#clip1)"><g clip-path="url(#clip2)"><g clip-path="url(#clip3)"><path d="M215.555 915.44C213.286 915.457 211.001 915.497 208.709 915.554 202.452 929.783 196.951 945.305 192.504 961.526 224.432 960.422 258.524 964.447 290.095 974.169 272.176 958.961 245.14 947.266 212.6 938.097 212.551 938.099 212.502 938.094 212.453 938.097L212.453 938.048C212.503 938.062 212.55 938.082 212.6 938.097 214.301 938.021 215.991 937.971 217.69 937.966 271.895 937.773 324.57 972.529 345.77 1001.5 316.737 991.591 255.269 979.903 207.708 978.962 241.668 988.822 278.268 1010.99 296.367 1030.04 264.52 1013.57 218.828 996.205 185.757 991.144 184.389 998.647 183.253 1006.23 182.407 1013.82 234.133 1022.7 270.624 1060.78 292.214 1098.06 249.004 1055.94 213.425 1040.86 180.863 1033.65 180.569 1040.08 180.482 1046.49 180.633 1052.85 220.3 1060.08 262.305 1086.18 283.561 1113.69 263.757 1111.86 253.331 1111.67 239.493 1113.69 247.31 1121.77 250.996 1129.85 253.711 1138.27 239.234 1126.16 215.154 1114.61 199.186 1107.57 211.279 1100.96 230.155 1102.07 243.219 1100.97 228.628 1086.93 203.451 1076.44 182.112 1074.6 185.869 1107.6 196.689 1138.14 217.132 1161.5 221.05 1160.49 224.941 1159.3 228.806 1157.97L209.005 1125.68 249.97 1149.07C271.98 1138.16 292.805 1122.65 311.703 1104.42 301.354 1076.86 276.435 1049.57 243.041 1021.19 277.192 1033.78 313.425 1059.24 332.555 1082.35 337.488 1076.64 342.246 1070.78 346.805 1064.8 342.447 1048.06 309.798 1016.07 279.9 998.451 315.03 1005.11 350.257 1023.31 362.945 1041.91 369.678 1031.59 375.815 1021.1 381.268 1010.65 364.692 984.329 340.055 961.594 296.056 940.937 337.798 948.986 370.975 965.602 393.155 985.415 395.551 979.701 397.719 974.055 399.64 968.503 345.301 933.217 285.91 914.882 215.555 915.44Z" fill="#FEFEFE" fill-rule="nonzero" fill-opacity="1"/></g></g></g></g></svg>