<?xml version="1.0" encoding="UTF-8" standalone="no"?>
<svg
   width="299"
   height="290"
   xml:space="preserve"
   overflow="hidden"
   version="1.1"
   id="svg635"
   sodipodi:docname="G.svg"
   inkscape:version="1.2.1 (9c6d41e, 2022-07-14)"
   xmlns:inkscape="http://www.inkscape.org/namespaces/inkscape"
   xmlns:sodipodi="http://sodipodi.sourceforge.net/DTD/sodipodi-0.dtd"
   xmlns="http://www.w3.org/2000/svg"
   xmlns:svg="http://www.w3.org/2000/svg"><sodipodi:namedview
     id="namedview637"
     pagecolor="#ffffff"
     bordercolor="#000000"
     borderopacity="0.25"
     inkscape:showpageshadow="2"
     inkscape:pageopacity="0.0"
     inkscape:pagecheckerboard="0"
     inkscape:deskcolor="#d1d1d1"
     showgrid="false"
     inkscape:lockguides="false"
     inkscape:zoom="0.80272109"
     inkscape:cx="67.894068"
     inkscape:cy="157.58898"
     inkscape:window-width="1410"
     inkscape:window-height="833"
     inkscape:window-x="4"
     inkscape:window-y="37"
     inkscape:window-maximized="0"
     inkscape:current-layer="svg635" /><defs
     id="defs625"><clipPath
       id="clip0"><rect
         x="119"
         y="1640"
         width="307"
         height="294"
         id="rect622" /></clipPath></defs><g
     clip-path="url(#clip0)"
     transform="translate(-123,-1641)"
     id="g633"><path
       d="m 123,1672.86 c 0,-17.6 14.264,-31.86 31.859,-31.86 h 235.282 c 17.595,0 31.859,14.26 31.859,31.86 v 226.28 c 0,17.6 -14.264,31.86 -31.859,31.86 H 154.859 C 137.264,1931 123,1916.74 123,1899.14 Z"
       fill="#3bb54a"
       fill-rule="evenodd"
       fill-opacity="1"
       id="path627" /><path
       d="m 333.3,1877.12 38.963,-186.61 -185.168,42.54 13.277,57.95 94.758,-21.76 -20.088,95.8 z"
       fill="#ffffff"
       fill-rule="evenodd"
       fill-opacity="1"
       id="path629" /><path
       d="m 248.364,1886.68 18.102,-86.7 -86.031,19.76 6.168,26.93 44.026,-10.11 -9.333,44.51 z"
       fill="#ffffff"
       fill-rule="evenodd"
       fill-opacity="1"
       id="path631" /></g></svg>
