<svg width="335" height="335" xmlns="http://www.w3.org/2000/svg" xmlns:xlink="http://www.w3.org/1999/xlink" xml:space="preserve" overflow="hidden"><defs><clipPath id="clip0"><rect x="554" y="1608" width="335" height="335"/></clipPath></defs><g clip-path="url(#clip0)" transform="translate(-554 -1608)"><path d="M699.252 1617.84C709.79 1607.3 726.874 1607.3 737.412 1617.84L878.188 1758.62C888.726 1769.16 888.726 1786.24 878.188 1796.78L742.675 1932.29C732.138 1942.83 715.053 1942.83 704.516 1932.29L563.739 1791.51C553.202 1780.98 553.202 1763.89 563.739 1753.35Z" fill="#3BB54A" fill-rule="evenodd" fill-opacity="1"/><path d="M758.852 1864.81 792.564 1703.34 632.349 1740.15 643.836 1790.29 725.825 1771.47 708.444 1854.36Z" fill="#FFFFFF" fill-rule="evenodd" fill-opacity="1"/><path d="M685.361 1873.08 701.024 1798.06 626.585 1815.16 631.922 1838.45 670.016 1829.71 661.94 1868.22Z" fill="#FFFFFF" fill-rule="evenodd" fill-opacity="1"/></g></svg>