<?xml version="1.0" encoding="UTF-8" standalone="no"?>
<svg
   width="299"
   height="290"
   xml:space="preserve"
   overflow="hidden"
   version="1.1"
   id="svg1003"
   sodipodi:docname="Ra.svg"
   inkscape:version="1.2.1 (9c6d41e, 2022-07-14)"
   xmlns:inkscape="http://www.inkscape.org/namespaces/inkscape"
   xmlns:sodipodi="http://sodipodi.sourceforge.net/DTD/sodipodi-0.dtd"
   xmlns="http://www.w3.org/2000/svg"
   xmlns:svg="http://www.w3.org/2000/svg"><sodipodi:namedview
     id="namedview1005"
     pagecolor="#ffffff"
     bordercolor="#000000"
     borderopacity="0.25"
     inkscape:showpageshadow="2"
     inkscape:pageopacity="0.0"
     inkscape:pagecheckerboard="0"
     inkscape:deskcolor="#d1d1d1"
     showgrid="false"
     inkscape:zoom="3.25"
     inkscape:cx="74.923077"
     inkscape:cy="155.84615"
     inkscape:window-width="1390"
     inkscape:window-height="1205"
     inkscape:window-x="0"
     inkscape:window-y="25"
     inkscape:window-maximized="0"
     inkscape:current-layer="svg1003" /><defs
     id="defs989"><clipPath
       id="clip0"><rect
         x="1993"
         y="128"
         width="312"
         height="316"
         id="rect977" /></clipPath><clipPath
       id="clip1"><path
         d="m 2273.33,146.228 28.39,268.663 -268.66,28.391 -28.39,-268.663 z"
         fill-rule="nonzero"
         clip-rule="nonzero"
         id="path980" /></clipPath><clipPath
       id="clip2"><path
         d="m 2273.33,146.228 28.39,268.663 -268.66,28.391 -28.39,-268.663 z"
         fill-rule="evenodd"
         clip-rule="evenodd"
         id="path983" /></clipPath><clipPath
       id="clip3"><path
         d="m 2273.33,146.228 28.39,268.663 -268.66,28.391 -28.39,-268.663 z"
         fill-rule="evenodd"
         clip-rule="evenodd"
         id="path986" /></clipPath></defs><g
     clip-path="url(#clip0)"
     transform="translate(-1998,-130)"
     id="g1001"><path
       d="M 1998,161.859 C 1998,144.264 2012.26,130 2029.86,130 h 235.28 c 17.6,0 31.86,14.264 31.86,31.859 v 226.282 c 0,17.595 -14.26,31.859 -31.86,31.859 h -235.28 c -17.6,0 -31.86,-14.264 -31.86,-31.859 z"
       fill="#ea222b"
       fill-rule="evenodd"
       fill-opacity="1"
       id="path991" /><g
       clip-path="url(#clip1)"
       id="g999"><g
         clip-path="url(#clip2)"
         id="g997"><g
           clip-path="url(#clip3)"
           id="g995"><path
             d="m 2267.53,332.222 -7.67,-7.053 -55.75,60.671 7.68,7.053 z m -15.66,-14.385 -18.98,-17.44 -8.39,9.138 z m -7.64,9.756 -26.52,-8.044 -1.89,-0.573 -10.26,11.172 28.41,8.616 z m -18.6,-33.869 -88.86,-81.63 -0.03,0.031 -0.67,-0.615 c -10.16,-9.339 -20.73,-17.058 -31.02,-22.936 l -50.14,54.565 c 6.73,9.766 15.31,19.639 25.48,28.977 l 0.67,0.616 -0.03,0.033 3.23,2.964 85.62,78.666 z m -0.34,54.483 -26.52,-8.045 -1.89,-0.573 -11.25,12.246 28.41,8.616 z m -19.92,21.686 -26.53,-8.043 -1.26,-0.383 19.27,17.699 z M 2095.99,183.848 c -3.89,-1.832 -7.71,-3.393 -11.42,-4.638 -8.09,-2.715 -15.69,-4.019 -22.54,-3.538 -6.85,0.482 -13.1,2.885 -17.47,7.646 -4.37,4.762 -6.24,11.192 -6.14,18.055 0.1,6.863 2.04,14.327 5.43,22.16 1.56,3.592 3.43,7.266 5.59,10.983 z"
             fill="#fefefe"
             fill-rule="nonzero"
             fill-opacity="1"
             id="path993" /></g></g></g></g></svg>
