<?xml version="1.0" encoding="UTF-8" standalone="no"?>
<svg
   width="330.2525"
   height="330.25549"
   xml:space="preserve"
   overflow="hidden"
   version="1.1"
   id="svg1050"
   sodipodi:docname="Ra8.svg"
   inkscape:version="1.2.1 (9c6d41e, 2022-07-14)"
   xmlns:inkscape="http://www.inkscape.org/namespaces/inkscape"
   xmlns:sodipodi="http://sodipodi.sourceforge.net/DTD/sodipodi-0.dtd"
   xmlns="http://www.w3.org/2000/svg"
   xmlns:svg="http://www.w3.org/2000/svg"><sodipodi:namedview
     id="namedview1052"
     pagecolor="#ffffff"
     bordercolor="#000000"
     borderopacity="0.25"
     inkscape:showpageshadow="2"
     inkscape:pageopacity="0.0"
     inkscape:pagecheckerboard="0"
     inkscape:deskcolor="#d1d1d1"
     showgrid="false"
     inkscape:zoom="3.0656716"
     inkscape:cx="83.668452"
     inkscape:cy="163.91188"
     inkscape:window-width="1390"
     inkscape:window-height="1205"
     inkscape:window-x="0"
     inkscape:window-y="25"
     inkscape:window-maximized="0"
     inkscape:current-layer="svg1050" /><defs
     id="defs1036"><clipPath
       id="clip0"><rect
         x="2323"
         y="123"
         width="335"
         height="335"
         id="rect1024" /></clipPath><clipPath
       id="clip1"><path
         d="m 2597.65,190.707 17.34,223.309 -223.31,17.338 -17.34,-223.309 z"
         fill-rule="nonzero"
         clip-rule="nonzero"
         id="path1027" /></clipPath><clipPath
       id="clip2"><path
         d="m 2597.65,190.707 17.34,223.309 -223.31,17.338 -17.34,-223.309 z"
         fill-rule="evenodd"
         clip-rule="evenodd"
         id="path1030" /></clipPath><clipPath
       id="clip3"><path
         d="m 2597.65,190.707 17.34,223.309 -223.31,17.338 -17.34,-223.309 z"
         fill-rule="evenodd"
         clip-rule="evenodd"
         id="path1033" /></clipPath></defs><g
     clip-path="url(#clip0)"
     transform="translate(-2325.935,-126.59625)"
     id="g1048"><path
       d="m 2469.35,134.499 c 10.54,-10.537 27.62,-10.537 38.16,0 l 140.78,140.777 c 10.53,10.538 10.53,27.622 0,38.159 l -135.52,135.514 c -10.53,10.537 -27.62,10.537 -38.16,0 L 2333.84,308.172 c -10.54,-10.537 -10.54,-27.622 0,-38.159 z"
       fill="#ea222b"
       fill-rule="evenodd"
       fill-opacity="1"
       id="path1038" /><g
       clip-path="url(#clip1)"
       id="g1046"><g
         clip-path="url(#clip2)"
         id="g1044"><g
           clip-path="url(#clip3)"
           id="g1042"><path
             d="m 2588.56,344.716 -6.2,-6.022 -47.6,48.997 6.2,6.022 z m -12.65,-12.282 -15.33,-14.891 -7.16,7.379 z m -6.56,7.909 -21.79,-7.277 -1.55,-0.519 -8.77,9.022 23.35,7.796 z m -14.63,-28.497 -71.76,-69.7 -0.03,0.026 -0.54,-0.526 c -8.21,-7.973 -16.78,-14.614 -25.18,-19.723 l -42.81,44.066 c 5.35,8.248 12.24,16.628 20.45,24.602 l 0.54,0.526 -0.03,0.026 2.61,2.531 69.15,67.167 z m -1.54,45.144 -21.79,-7.278 -1.55,-0.518 -9.61,9.889 23.35,7.795 z m -17.01,17.514 -21.8,-7.277 -1.03,-0.347 15.56,15.112 z m -86.36,-156.706 c -3.18,-1.608 -6.31,-2.99 -9.35,-4.107 -6.65,-2.437 -12.92,-3.692 -18.6,-3.451 -5.69,0.241 -10.92,2.088 -14.66,5.934 -3.74,3.845 -5.43,9.131 -5.5,14.821 -0.08,5.691 1.36,11.921 3.99,18.491 1.2,3.012 2.67,6.1 4.37,9.23 z"
             fill="#fefefe"
             fill-rule="nonzero"
             fill-opacity="1"
             id="path1040" /></g></g></g></g></svg>
