<?xml version="1.0" encoding="UTF-8" standalone="no"?>
<svg
   width="300"
   height="291"
   xml:space="preserve"
   overflow="hidden"
   version="1.1"
   id="svg1097"
   sodipodi:docname="Rd.svg"
   inkscape:version="1.2.1 (9c6d41e, 2022-07-14)"
   xmlns:inkscape="http://www.inkscape.org/namespaces/inkscape"
   xmlns:sodipodi="http://sodipodi.sourceforge.net/DTD/sodipodi-0.dtd"
   xmlns="http://www.w3.org/2000/svg"
   xmlns:svg="http://www.w3.org/2000/svg"><sodipodi:namedview
     id="namedview1099"
     pagecolor="#ffffff"
     bordercolor="#000000"
     borderopacity="0.25"
     inkscape:showpageshadow="2"
     inkscape:pageopacity="0.0"
     inkscape:pagecheckerboard="0"
     inkscape:deskcolor="#d1d1d1"
     showgrid="false"
     inkscape:zoom="3.5051195"
     inkscape:cx="77.743427"
     inkscape:cy="145.35881"
     inkscape:window-width="1390"
     inkscape:window-height="1205"
     inkscape:window-x="0"
     inkscape:window-y="25"
     inkscape:window-maximized="0"
     inkscape:current-layer="svg1097" /><defs
     id="defs1083"><clipPath
       id="clip0"><rect
         x="1012"
         y="119"
         width="303"
         height="293"
         id="rect1071" /></clipPath><clipPath
       id="clip1"><rect
         x="1042"
         y="134"
         width="270"
         height="269"
         id="rect1074" /></clipPath><clipPath
       id="clip2"><rect
         x="1042"
         y="134"
         width="270"
         height="269"
         id="rect1077" /></clipPath><clipPath
       id="clip3"><rect
         x="1042"
         y="134"
         width="270"
         height="269"
         id="rect1080" /></clipPath></defs><g
     clip-path="url(#clip0)"
     transform="translate(-1015,-120)"
     id="g1095"><path
       d="M 1015,151.969 C 1015,134.313 1029.31,120 1046.97,120 h 236.06 c 17.66,0 31.97,14.313 31.97,31.969 V 379.031 C 1315,396.687 1300.69,411 1283.03,411 H 1046.97 C 1029.31,411 1015,396.687 1015,379.031 Z"
       fill="#ea222b"
       fill-rule="evenodd"
       fill-opacity="1"
       id="path1085" /><g
       clip-path="url(#clip1)"
       id="g1093"><g
         clip-path="url(#clip2)"
         id="g1091"><g
           clip-path="url(#clip3)"
           id="g1089"><path
             d="m 34.962,101.666 v 19.983 h 49.849 v 27.329 h 16.448 c -0.839,27.218 -5.7478,45.708 -12.2107,57.164 -3.6363,6.445 -7.6202,10.673 -11.7355,13.251 C 66.2055,213.196 56.8621,199.041 56.8621,182.225 H 47.079 c 0,27.879 20.4099,51.108 43.2177,50.294 11.4033,-0.406 22.7373,-7.437 30.7113,-21.57 7.636,-13.534 12.646,-33.563 13.478,-61.971 h 12.217 V 101.665 H 34.962 Z m 181.69,2.051 v 9.401 h -60.166 v 23.66 h 60.165 v 9.399 h 9.783 v -9.399 h 12.316 v 9.399 h 9.782 v -9.399 H 258.7 v -23.661 h -10.167 v -9.401 h -9.783 v 9.401 h -12.315 v -9.401 h -9.783 z M 9.77939,131.433 v 43.902 H 75.0296 V 131.432 H 9.77886 Z M 111.047,148.978 h 13.652 c -0.839,27.219 -5.748,45.708 -12.211,57.165 -6.773,12.005 -14.7507,16.322 -22.5405,16.6 -2.1382,0.076 -4.312,-0.209 -6.4723,-0.799 4.6,-1.316 9.1393,-4.334 13.3917,-9.785 0.2355,-0.398 0.4711,-0.801 0.7014,-1.21 7.6367,-13.534 12.6467,-33.563 13.4787,-61.971 z m -87.4065,33.248 c 0,27.878 20.4089,51.107 43.2166,50.294 1.5583,-0.056 3.1161,-0.24 4.6639,-0.544 -12.1229,-2.242 -22.9188,-11.051 -29.4732,-23.266 -5.1836,-7.064 -8.6242,-16.284 -8.6242,-26.485 h -9.7831 z"
             fill="#fefefe"
             fill-rule="nonzero"
             fill-opacity="1"
             transform="matrix(1,0,0,1.00373,1029.91,119.289)"
             id="path1087" /></g></g></g></g></svg>
