<?xml version="1.0" encoding="UTF-8" standalone="no"?>
<svg
   width="330.26001"
   height="330.25601"
   xml:space="preserve"
   overflow="hidden"
   version="1.1"
   id="svg1144"
   sodipodi:docname="Rd8.svg"
   inkscape:version="1.2.1 (9c6d41e, 2022-07-14)"
   xmlns:inkscape="http://www.inkscape.org/namespaces/inkscape"
   xmlns:sodipodi="http://sodipodi.sourceforge.net/DTD/sodipodi-0.dtd"
   xmlns="http://www.w3.org/2000/svg"
   xmlns:svg="http://www.w3.org/2000/svg"><sodipodi:namedview
     id="namedview1146"
     pagecolor="#ffffff"
     bordercolor="#000000"
     borderopacity="0.25"
     inkscape:showpageshadow="2"
     inkscape:pageopacity="0.0"
     inkscape:pagecheckerboard="0"
     inkscape:deskcolor="#d1d1d1"
     showgrid="false"
     inkscape:zoom="3.0656716"
     inkscape:cx="85.299416"
     inkscape:cy="164.56426"
     inkscape:window-width="1390"
     inkscape:window-height="1205"
     inkscape:window-x="0"
     inkscape:window-y="25"
     inkscape:window-maximized="0"
     inkscape:current-layer="svg1144" /><defs
     id="defs1130"><clipPath
       id="clip0"><rect
         x="1342"
         y="114"
         width="335"
         height="335"
         id="rect1118" /></clipPath><clipPath
       id="clip1"><rect
         x="1399"
         y="159"
         width="253"
         height="254"
         id="rect1121" /></clipPath><clipPath
       id="clip2"><rect
         x="1399"
         y="159"
         width="253"
         height="254"
         id="rect1124" /></clipPath><clipPath
       id="clip3"><rect
         x="1399"
         y="159"
         width="253"
         height="254"
         id="rect1127" /></clipPath></defs><g
     clip-path="url(#clip0)"
     transform="translate(-1343.325,-117.0985)"
     id="g1142"><path
       d="m 1486.74,125.002 c 10.54,-10.538 27.63,-10.538 38.16,0 l 140.78,140.777 c 10.54,10.537 10.54,27.621 0,38.159 l -135.51,135.513 c -10.54,10.538 -27.62,10.538 -38.16,0 L 1351.23,298.675 c -10.54,-10.538 -10.54,-27.622 0,-38.16 z"
       fill="#ea222b"
       fill-rule="evenodd"
       fill-opacity="1"
       id="path1132" /><g
       clip-path="url(#clip1)"
       id="g1140"><g
         clip-path="url(#clip2)"
         id="g1138"><g
           clip-path="url(#clip3)"
           id="g1136"><path
             d="m 1419.57,241.815 v 18.79 h 46.87 v 25.697 h 15.47 c -0.79,25.594 -5.41,42.98 -11.48,53.752 -3.42,6.06 -7.17,10.036 -11.04,12.46 -10.44,-5.828 -19.23,-19.137 -19.23,-34.949 h -9.2 c 0,26.214 19.2,48.056 40.64,47.291 10.72,-0.382 21.38,-6.993 28.88,-20.283 7.18,-12.726 11.89,-31.559 12.67,-58.271 h 11.49 v -44.488 h -105.07 z m 170.84,1.928 v 8.84 h -56.57 v 22.248 h 56.57 v 8.838 h 9.2 v -8.838 h 11.58 v 8.838 h 9.2 v -8.838 h 9.56 v -22.249 h -9.56 v -8.839 h -9.2 v 8.839 h -11.58 v -8.839 z m -194.52,26.062 v 41.281 h 61.36 v -41.282 h -61.36 z m 95.22,16.498 h 12.84 c -0.79,25.593 -5.4,42.979 -11.48,53.752 -6.37,11.288 -13.87,15.347 -21.2,15.609 -2.01,0.071 -4.05,-0.197 -6.08,-0.751 4.32,-1.238 8.59,-4.076 12.59,-9.201 0.22,-0.374 0.44,-0.753 0.66,-1.138 7.18,-12.727 11.89,-31.559 12.67,-58.272 z m -82.19,31.262 c 0,26.214 19.19,48.057 40.64,47.292 1.47,-0.052 2.93,-0.225 4.39,-0.512 -11.4,-2.108 -21.55,-10.391 -27.72,-21.877 -4.87,-6.642 -8.11,-15.312 -8.11,-24.903 z"
             fill="#fefefe"
             fill-rule="nonzero"
             fill-opacity="1"
             id="path1134" /></g></g></g></g></svg>
