<?xml version="1.0" encoding="UTF-8" standalone="no"?>
<svg
   width="299"
   height="290"
   xml:space="preserve"
   overflow="hidden"
   version="1.1"
   id="svg1191"
   sodipodi:docname="Rh.svg"
   inkscape:version="1.2.1 (9c6d41e, 2022-07-14)"
   xmlns:inkscape="http://www.inkscape.org/namespaces/inkscape"
   xmlns:sodipodi="http://sodipodi.sourceforge.net/DTD/sodipodi-0.dtd"
   xmlns="http://www.w3.org/2000/svg"
   xmlns:svg="http://www.w3.org/2000/svg"><sodipodi:namedview
     id="namedview1193"
     pagecolor="#ffffff"
     bordercolor="#000000"
     borderopacity="0.25"
     inkscape:showpageshadow="2"
     inkscape:pageopacity="0.0"
     inkscape:pagecheckerboard="0"
     inkscape:deskcolor="#d1d1d1"
     showgrid="false"
     inkscape:zoom="3.4006623"
     inkscape:cx="76.602726"
     inkscape:cy="150.11782"
     inkscape:window-width="1390"
     inkscape:window-height="1205"
     inkscape:window-x="0"
     inkscape:window-y="25"
     inkscape:window-maximized="0"
     inkscape:current-layer="svg1191" /><defs
     id="defs1177"><clipPath
       id="clip0"><rect
         x="119"
         y="128"
         width="307"
         height="302"
         id="rect1165" /></clipPath><clipPath
       id="clip1"><rect
         x="126"
         y="160"
         width="270"
         height="269"
         id="rect1168" /></clipPath><clipPath
       id="clip2"><rect
         x="126"
         y="160"
         width="270"
         height="269"
         id="rect1171" /></clipPath><clipPath
       id="clip3"><rect
         x="126"
         y="160"
         width="270"
         height="269"
         id="rect1174" /></clipPath></defs><g
     clip-path="url(#clip0)"
     transform="translate(-123,-129)"
     id="g1189"><path
       d="M 123,160.859 C 123,143.264 137.264,129 154.859,129 H 390.141 C 407.736,129 422,143.264 422,160.859 V 387.141 C 422,404.736 407.736,419 390.141,419 H 154.859 C 137.264,419 123,404.736 123,387.141 Z"
       fill="#ea222b"
       fill-rule="evenodd"
       fill-opacity="1"
       id="path1179" /><g
       clip-path="url(#clip1)"
       id="g1187"><g
         clip-path="url(#clip2)"
         id="g1185"><g
           clip-path="url(#clip3)"
           id="g1183"><path
             d="M 31.3738,9.29102 8.25985,32.4039 25.0434,49.1707 48.1563,26.0567 31.3733,9.29102 Z m 17.42,29.96678 -9.8626,9.8637 c 9.3245,16.7081 26.4703,34.1627 42.2833,43.8704 L 92.5836,81.6228 C 82.6901,65.5135 65.1277,48.5112 48.7949,39.2578 Z m 76.8312,23.1621 -66.5749,66.5751 6.9685,6.968 66.5754,-66.575 z m 2.585,25.5668 -39.2423,39.2423 6.2655,6.264 c 2.7114,-2.549 6.1898,-3.811 9.6668,-3.811 3.613,0 7.224,1.366 9.978,4.122 5.402,5.404 5.504,14.115 0.311,19.645 l 69.469,69.471 c 18.385,18.385 48.9,40.693 74.182,34.939 -12.267,-11.141 -42.799,-55.856 -37.507,-76.52 l -21.298,3.795 4.007,-20.97 -21.231,3.745 4.236,-20.724 -20.97,3.992 3.992,-20.971 -21.215,3.746 4.056,-21.265 -24.7,-24.6987 z"
             fill="#ffffff"
             fill-rule="nonzero"
             fill-opacity="1"
             transform="matrix(0,1,-1.00373,0,410.711,146.914)"
             id="path1181" /></g></g></g></g></svg>
