<?xml version="1.0" encoding="UTF-8" standalone="no"?>
<svg
   width="330.25601"
   height="330.25549"
   xml:space="preserve"
   overflow="hidden"
   version="1.1"
   id="svg1223"
   sodipodi:docname="Rh8.svg"
   inkscape:version="1.2.1 (9c6d41e, 2022-07-14)"
   xmlns:inkscape="http://www.inkscape.org/namespaces/inkscape"
   xmlns:sodipodi="http://sodipodi.sourceforge.net/DTD/sodipodi-0.dtd"
   xmlns="http://www.w3.org/2000/svg"
   xmlns:svg="http://www.w3.org/2000/svg"><sodipodi:namedview
     id="namedview1225"
     pagecolor="#ffffff"
     bordercolor="#000000"
     borderopacity="0.25"
     inkscape:showpageshadow="2"
     inkscape:pageopacity="0.0"
     inkscape:pagecheckerboard="0"
     inkscape:deskcolor="#d1d1d1"
     showgrid="false"
     inkscape:zoom="3.0656716"
     inkscape:cx="82.037488"
     inkscape:cy="163.25949"
     inkscape:window-width="1390"
     inkscape:window-height="1205"
     inkscape:window-x="0"
     inkscape:window-y="25"
     inkscape:window-maximized="0"
     inkscape:current-layer="svg1223" /><defs
     id="defs1215"><clipPath
       id="clip0"><rect
         x="554"
         y="105"
         width="335"
         height="335"
         id="rect1212" /></clipPath></defs><g
     clip-path="url(#clip0)"
     transform="translate(-558.5875,-109.12925)"
     id="g1221"><path
       d="m 702.004,117.032 c 10.538,-10.537 27.622,-10.537 38.159,0 L 880.94,257.809 c 10.538,10.537 10.538,27.622 0,38.159 L 745.427,431.482 c -10.538,10.537 -27.622,10.537 -38.16,0 L 566.491,290.705 c -10.538,-10.537 -10.538,-27.622 0,-38.159 z"
       fill="#ea222b"
       fill-rule="evenodd"
       fill-opacity="1"
       id="path1217" /><path
       d="m 808.008,208.028 -15.193,-15.035 -11.021,10.917 15.194,15.035 z m -19.698,11.332 -6.484,-6.416 c -10.983,6.066 -22.456,17.219 -28.838,27.505 l 7.474,7.395 c 10.589,-6.435 21.765,-17.859 27.848,-28.484 z m -15.226,49.978 -43.762,-43.307 -4.58,4.533 43.762,43.307 z m -16.805,1.681 -25.796,-25.527 -4.118,4.076 c 1.676,1.764 2.505,4.027 2.505,6.288 0,2.351 -0.898,4.699 -2.709,6.491 -3.552,3.514 -9.278,3.58 -12.914,0.202 l -45.665,45.189 c -12.086,11.96 -26.75,31.809 -22.967,48.255 7.323,-7.98 36.716,-27.84 50.299,-24.398 l -2.494,-13.854 13.784,2.607 -2.462,-13.811 13.623,2.756 -2.624,-13.642 13.785,2.597 -2.462,-13.8 13.978,2.639 16.235,-16.068 z"
       fill="#ffffff"
       fill-rule="evenodd"
       fill-opacity="1"
       id="path1219" /></g></svg>
