<?xml version="1.0" encoding="UTF-8" standalone="no"?>
<svg
   width="330.2525"
   height="330.25323"
   xml:space="preserve"
   overflow="hidden"
   version="1.1"
   id="svg28"
   sodipodi:docname="ssrd8.svg"
   inkscape:version="1.2.1 (9c6d41e, 2022-07-14)"
   xmlns:inkscape="http://www.inkscape.org/namespaces/inkscape"
   xmlns:sodipodi="http://sodipodi.sourceforge.net/DTD/sodipodi-0.dtd"
   xmlns="http://www.w3.org/2000/svg"
   xmlns:svg="http://www.w3.org/2000/svg"><sodipodi:namedview
     id="namedview30"
     pagecolor="#ffffff"
     bordercolor="#000000"
     borderopacity="0.25"
     inkscape:showpageshadow="2"
     inkscape:pageopacity="0.0"
     inkscape:pagecheckerboard="0"
     inkscape:deskcolor="#d1d1d1"
     showgrid="false"
     inkscape:zoom="0.70447761"
     inkscape:cx="149.04661"
     inkscape:cy="164.66102"
     inkscape:window-width="1309"
     inkscape:window-height="456"
     inkscape:window-x="0"
     inkscape:window-y="37"
     inkscape:window-maximized="0"
     inkscape:current-layer="svg28" /><defs
     id="defs14"><clipPath
       id="clip0"><rect
         x="2667"
         y="751"
         width="335"
         height="335"
         id="rect2" /></clipPath><clipPath
       id="clip1"><path
         d="m 2884.76,1084.17 -195.91,-113.113 85.19,-147.555 195.91,113.111 z"
         fill-rule="nonzero"
         clip-rule="nonzero"
         id="path5" /></clipPath><clipPath
       id="clip2"><path
         d="m 2884.76,1084.17 -195.91,-113.113 85.19,-147.555 195.91,113.111 z"
         fill-rule="evenodd"
         clip-rule="evenodd"
         id="path8" /></clipPath><clipPath
       id="clip3"><path
         d="m 2884.76,1084.17 -195.91,-113.113 85.19,-147.555 195.91,113.111 z"
         fill-rule="evenodd"
         clip-rule="evenodd"
         id="path11" /></clipPath></defs><g
     clip-path="url(#clip0)"
     transform="translate(-2670.255,-754.10425)"
     id="g26"><path
       d="m 2813.67,762.007 c 10.54,-10.537 27.62,-10.537 38.16,0 l 140.78,140.777 c 10.53,10.537 10.53,27.622 0,38.159 l -135.52,135.517 c -10.53,10.53 -27.62,10.53 -38.16,0 L 2678.16,935.68 c -10.54,-10.537 -10.54,-27.622 0,-38.159 z"
       fill="#ea222b"
       fill-rule="evenodd"
       fill-opacity="1"
       id="path16" /><g
       clip-path="url(#clip1)"
       id="g24"><g
         clip-path="url(#clip2)"
         id="g22"><g
           clip-path="url(#clip3)"
           id="g20"><path
             d="m 183.943,356.223 -4.922,52.754 c -6.527,11.022 -13.055,22.365 -19.475,33.6 -13.911,10.273 -28.892,20.759 -43.337,30.925 l 42.374,24.504 40.983,-14.873 c 39.914,30.71 90.528,46.654 142.747,42.588 C 319.734,477.889 280.57,441.935 233.808,422.888 l -7.49,-42.267 z"
             fill="#ffffff"
             fill-rule="nonzero"
             fill-opacity="1"
             transform="matrix(-0.866474,-0.500259,0.5,-0.866025,2807.41,1450.69)"
             id="path18" /></g></g></g></g></svg>
