<?xml version="1.0" encoding="UTF-8" standalone="no"?>
<svg
   width="299"
   height="290"
   xml:space="preserve"
   overflow="hidden"
   version="1.1"
   id="svg353"
   sodipodi:docname="W.svg"
   inkscape:version="1.2.1 (9c6d41e, 2022-07-14)"
   xmlns:inkscape="http://www.inkscape.org/namespaces/inkscape"
   xmlns:sodipodi="http://sodipodi.sourceforge.net/DTD/sodipodi-0.dtd"
   xmlns="http://www.w3.org/2000/svg"
   xmlns:svg="http://www.w3.org/2000/svg"><sodipodi:namedview
     id="namedview355"
     pagecolor="#ffffff"
     bordercolor="#000000"
     borderopacity="0.25"
     inkscape:showpageshadow="2"
     inkscape:pageopacity="0.0"
     inkscape:pagecheckerboard="0"
     inkscape:deskcolor="#d1d1d1"
     showgrid="false"
     inkscape:zoom="0.80272109"
     inkscape:cx="149.49153"
     inkscape:cy="145.75424"
     inkscape:window-width="1309"
     inkscape:window-height="456"
     inkscape:window-x="0"
     inkscape:window-y="37"
     inkscape:window-maximized="0"
     inkscape:current-layer="svg353" /><defs
     id="defs339"><clipPath
       id="clip0"><rect
         x="119"
         y="517"
         width="307"
         height="294"
         id="rect327" /></clipPath><clipPath
       id="clip1"><rect
         x="145"
         y="537"
         width="254"
         height="254"
         id="rect330" /></clipPath><clipPath
       id="clip2"><rect
         x="145"
         y="537"
         width="254"
         height="254"
         id="rect333" /></clipPath><clipPath
       id="clip3"><rect
         x="145"
         y="537"
         width="254"
         height="254"
         id="rect336" /></clipPath></defs><g
     clip-path="url(#clip0)"
     transform="translate(-123,-518)"
     id="g351"><path
       d="M 123,549.859 C 123,532.264 137.264,518 154.859,518 H 390.141 C 407.736,518 422,532.264 422,549.859 V 776.141 C 422,793.736 407.736,808 390.141,808 H 154.859 C 137.264,808 123,793.736 123,776.141 Z"
       fill="#acafb2"
       fill-rule="evenodd"
       fill-opacity="1"
       id="path341" /><g
       clip-path="url(#clip1)"
       id="g349"><g
         clip-path="url(#clip2)"
         id="g347"><g
           clip-path="url(#clip3)"
           id="g345"><path
             d="m 356.993,640.516 h -27.577 l 19.506,-19.507 c 6.061,-6.06 8.427,-14.893 6.21,-23.172 -2.219,-8.279 -8.685,-14.746 -16.964,-16.964 -8.279,-2.218 -17.112,0.149 -23.173,6.209 l -19.506,19.507 v -27.577 c 0,-8.587 -4.581,-16.522 -12.017,-20.815 -7.437,-4.293 -16.599,-4.293 -24.035,0 -7.437,4.293 -12.018,12.228 -12.018,20.815 v 27.577 l -19.406,-19.507 c -6.06,-6.06 -14.893,-8.427 -23.172,-6.209 -8.279,2.218 -14.746,8.685 -16.964,16.964 -2.218,8.279 0.149,17.112 6.209,23.172 l 19.507,19.507 h -27.577 c -8.587,0 -16.522,4.581 -20.815,12.017 -4.293,7.437 -4.293,16.599 0,24.035 4.293,7.437 12.228,12.018 20.815,12.018 h 27.577 l -19.507,19.405 c -4.499,4.499 -7.026,10.601 -7.026,16.963 0,6.363 2.527,12.465 7.026,16.964 4.5,4.499 10.601,7.027 16.964,7.027 6.362,0 12.464,-2.528 16.963,-7.027 l 19.507,-19.506 v 27.577 c 0,8.587 4.581,16.521 12.017,20.815 7.437,4.293 16.599,4.293 24.035,0 7.437,-4.294 12.018,-12.228 12.018,-20.815 v -27.577 l 19.506,19.506 h 10e-4 c 6.151,5.549 14.73,7.531 22.692,5.241 7.961,-2.288 14.177,-8.524 16.443,-16.492 2.266,-7.969 0.258,-16.541 -5.31,-22.675 l -19.506,-19.506 h 27.577 c 8.587,0 16.521,-4.582 20.816,-12.018 4.292,-7.436 4.292,-16.599 0,-24.035 -4.295,-7.436 -12.229,-12.017 -20.816,-12.017 z"
             fill="#ffffff"
             fill-rule="nonzero"
             fill-opacity="1"
             id="path343" /></g></g></g></g></svg>
