<?xml version="1.0" encoding="UTF-8" standalone="no"?>
<svg
   width="299"
   height="291"
   xml:space="preserve"
   overflow="hidden"
   version="1.1"
   id="svg28"
   sodipodi:docname="Y.svg"
   inkscape:version="1.2.1 (9c6d41e, 2022-07-14)"
   xmlns:inkscape="http://www.inkscape.org/namespaces/inkscape"
   xmlns:sodipodi="http://sodipodi.sourceforge.net/DTD/sodipodi-0.dtd"
   xmlns="http://www.w3.org/2000/svg"
   xmlns:svg="http://www.w3.org/2000/svg"><sodipodi:namedview
     id="namedview30"
     pagecolor="#ffffff"
     bordercolor="#000000"
     borderopacity="0.25"
     inkscape:showpageshadow="2"
     inkscape:pageopacity="0.0"
     inkscape:pagecheckerboard="0"
     inkscape:deskcolor="#d1d1d1"
     showgrid="false"
     inkscape:zoom="3.3452769"
     inkscape:cx="75.479552"
     inkscape:cy="152.60321"
     inkscape:window-width="1390"
     inkscape:window-height="1205"
     inkscape:window-x="0"
     inkscape:window-y="25"
     inkscape:window-maximized="0"
     inkscape:current-layer="svg28" /><defs
     id="defs14"><clipPath
       id="clip0"><rect
         x="119"
         y="1251"
         width="307"
         height="307"
         id="rect2" /></clipPath><clipPath
       id="clip1"><rect
         x="151"
         y="1288"
         width="273"
         height="270"
         id="rect5" /></clipPath><clipPath
       id="clip2"><rect
         x="151"
         y="1288"
         width="273"
         height="270"
         id="rect8" /></clipPath><clipPath
       id="clip3"><rect
         x="151"
         y="1288"
         width="273"
         height="270"
         id="rect11" /></clipPath></defs><g
     clip-path="url(#clip0)"
     transform="translate(-123,-1252)"
     id="g26"><path
       d="m 123,1283.97 c 0,-17.66 14.313,-31.97 31.969,-31.97 h 235.062 c 17.656,0 31.969,14.31 31.969,31.97 v 227.06 c 0,17.66 -14.313,31.97 -31.969,31.97 H 154.969 C 137.313,1543 123,1528.69 123,1511.03 Z"
       fill="#bf9000"
       fill-rule="evenodd"
       fill-opacity="1"
       id="path16" /><g
       clip-path="url(#clip1)"
       id="g24"><g
         clip-path="url(#clip2)"
         id="g22"><g
           clip-path="url(#clip3)"
           id="g20"><path
             d="m 135,55.3711 c -31.773,0 -65.7856,20.2447 -88.5648,40.9535 C 28.0146,113.071 15.4686,129.21 11.1665,135 c 4.3021,5.79 16.8481,21.929 35.2687,38.675 22.7786,20.709 56.7918,40.954 88.5648,40.954 31.772,0 65.785,-20.245 88.565,-40.954 C 241.985,156.929 254.531,140.79 258.833,135 254.531,129.21 241.985,113.071 223.565,96.3246 200.786,75.6158 166.772,55.3711 135,55.3711 Z M 135,67.5 c 11.748,0.0185 23.288,3.103 33.479,8.9484 -9.966,3.6517 -16.596,13.133 -16.604,23.7466 0.004,0.08 0.008,0.16 0.012,0.239 -3.817,-1.8769 -7.92,-3.1026 -12.141,-3.6264 V 84.375 h -9.492 V 96.8076 C 112.834,98.9671 98.9665,112.834 96.8076,130.254 H 84.375 v 9.492 h 12.4326 c 2.1595,17.42 16.0264,31.287 33.4464,33.446 v 12.433 h 9.492 v -12.433 c 17.42,-2.159 31.287,-16.026 33.446,-33.446 h 12.433 v -9.492 h -12.433 c -0.223,-1.783 -0.572,-3.547 -1.044,-5.281 1.658,0.346 3.346,0.526 5.039,0.535 8.854,-0.013 17.058,-4.652 21.634,-12.232 2.408,6.991 3.651,14.33 3.679,21.724 0,37.279 -30.221,67.5 -67.5,67.5 -37.2793,0 -67.5,-30.221 -67.5,-67.5 0,-37.2793 30.2207,-67.5 67.5,-67.5 z m -4.746,38.885 v 11.74 h 9.492 v -11.74 c 12.254,2 21.869,11.615 23.869,23.869 h -11.74 v 9.492 h 11.74 c -2,12.254 -11.615,21.869 -23.869,23.869 v -11.74 h -9.492 v 11.74 C 118,161.615 108.385,152 106.385,139.746 h 11.74 v -9.492 h -11.74 c 2,-12.254 11.615,-21.869 23.869,-23.869 z"
             fill="#fefefe"
             fill-rule="nonzero"
             fill-opacity="1"
             transform="matrix(1.00371,0,0,1,138.768,1273.23)"
             id="path18" /></g></g></g></g></svg>
